<svg width="389" height="597" viewBox="0 0 389 597" fill="none" xmlns="http://www.w3.org/2000/svg">
<circle cx="32" cy="11" r="3" fill="white" fill-opacity="0.6"/>
<circle cx="83" cy="16" r="3" fill="white" fill-opacity="0.6"/>
<circle cx="93" cy="72" r="3" fill="white" fill-opacity="0.6"/>
<circle cx="175" cy="62" r="3" fill="white" fill-opacity="0.6"/>
<circle cx="152" cy="30" r="3" fill="white" fill-opacity="0.6"/>
<circle cx="240" cy="35" r="3" fill="white" fill-opacity="0.6"/>
<circle cx="259" cy="62" r="3" fill="white" fill-opacity="0.6"/>
<circle cx="311" cy="35" r="3" fill="white" fill-opacity="0.6"/>
<circle cx="330" cy="77" r="3" fill="white" fill-opacity="0.6"/>
<circle cx="301" cy="114" r="3" fill="white" fill-opacity="0.6"/>
<circle cx="205" cy="104" r="3" fill="white" fill-opacity="0.6"/>
<circle cx="109" cy="199" r="3" fill="white" fill-opacity="0.6"/>
<circle cx="192" cy="198" r="3" fill="white" fill-opacity="0.6"/>
<circle cx="48" cy="112" r="3" fill="white" fill-opacity="0.6"/>
<circle cx="28" cy="70" r="3" fill="white" fill-opacity="0.6"/>
<circle cx="144" cy="114" r="3" fill="white" fill-opacity="0.6"/>
<circle cx="249" cy="148" r="3" fill="white" fill-opacity="0.6"/>
<circle cx="244" cy="108" r="3" fill="white" fill-opacity="0.6"/>
<circle cx="295" cy="175" r="3" fill="white" fill-opacity="0.6"/>
<circle cx="378" cy="122" r="3" fill="white" fill-opacity="0.6"/>
<circle cx="374" cy="69" r="3" fill="white" fill-opacity="0.6"/>
<circle cx="363" cy="19" r="3" fill="white" fill-opacity="0.6"/>
<circle cx="259" cy="3" r="3" fill="white" fill-opacity="0.6"/>
<circle cx="192" cy="3" r="3" fill="white" fill-opacity="0.6"/>
<circle cx="24" cy="382" r="3" fill="white" fill-opacity="0.6"/>
<circle cx="38" cy="439" r="3" fill="white" fill-opacity="0.6"/>
<circle cx="184" cy="523" r="3" fill="white" fill-opacity="0.6"/>
<circle cx="212" cy="447" r="3" fill="white" fill-opacity="0.6"/>
<circle cx="319" cy="439" r="3" fill="white" fill-opacity="0.6"/>
<circle cx="386" cy="469" r="3" fill="white" fill-opacity="0.6"/>
<circle cx="383" cy="465" r="3" fill="white" fill-opacity="0.6"/>
<circle cx="277" cy="532" r="3" fill="white" fill-opacity="0.6"/>
<circle cx="112" cy="574" r="3" fill="white" fill-opacity="0.6"/>
<circle cx="374" cy="578" r="3" fill="white" fill-opacity="0.6"/>
<circle cx="170" cy="248" r="3" fill="white" fill-opacity="0.6"/>
<circle cx="114" cy="324" r="3" fill="white" fill-opacity="0.6"/>
<circle cx="245" cy="414" r="3" fill="white" fill-opacity="0.6"/>
<circle cx="291" cy="314" r="3" fill="white" fill-opacity="0.6"/>
<circle cx="296" cy="248" r="3" fill="white" fill-opacity="0.6"/>
<circle cx="249" cy="204" r="3" fill="white" fill-opacity="0.6"/>
<circle cx="340" cy="194" r="3" fill="white" fill-opacity="0.6"/>
<circle cx="383" cy="295" r="3" fill="white" fill-opacity="0.6"/>
<circle cx="378" cy="393" r="3" fill="white" fill-opacity="0.6"/>
<circle cx="325" cy="485" r="3" fill="white" fill-opacity="0.6"/>
<circle cx="249" cy="495" r="3" fill="white" fill-opacity="0.6"/>
<circle cx="165" cy="461" r="3" fill="white" fill-opacity="0.6"/>
<circle cx="99" cy="424" r="3" fill="white" fill-opacity="0.6"/>
<circle cx="78" cy="374" r="3" fill="white" fill-opacity="0.6"/>
<circle cx="52" cy="287" r="3" fill="white" fill-opacity="0.6"/>
<circle cx="47" cy="230" r="3" fill="white" fill-opacity="0.6"/>
<circle cx="47" cy="161" r="3" fill="white" fill-opacity="0.6"/>
<circle cx="104" cy="151" r="3" fill="white" fill-opacity="0.6"/>
<circle cx="175" cy="156" r="3" fill="white" fill-opacity="0.6"/>
<circle cx="52" cy="555" r="3" fill="white" fill-opacity="0.6"/>
<circle cx="24" cy="561" r="3" fill="white" fill-opacity="0.6"/>
<circle cx="3" cy="516" r="3" fill="white" fill-opacity="0.6"/>
<circle cx="13" cy="464" r="3" fill="white" fill-opacity="0.6"/>
<circle cx="14" cy="594" r="3" fill="white" fill-opacity="0.6"/>
<circle cx="75" cy="591" r="3" fill="white" fill-opacity="0.6"/>
<circle cx="42" cy="510" r="3" fill="white" fill-opacity="0.6"/>
<circle cx="77" cy="494" r="3" fill="white" fill-opacity="0.6"/>
<circle cx="109" cy="476" r="3" fill="white" fill-opacity="0.6"/>
<circle cx="170" cy="397" r="3" fill="white" fill-opacity="0.6"/>
<circle cx="235" cy="346" r="3" fill="white" fill-opacity="0.6"/>
<circle cx="210" cy="318" r="3" fill="white" fill-opacity="0.6"/>
<circle cx="232" cy="297" r="3" fill="white" fill-opacity="0.6"/>
<circle cx="257" cy="318" r="3" fill="white" fill-opacity="0.6"/>
<circle cx="276" cy="341" r="3" fill="white" fill-opacity="0.6"/>
<circle cx="150" cy="324" r="3" fill="white" fill-opacity="0.6"/>
<circle cx="83" cy="311" r="3" fill="white" fill-opacity="0.6"/>
<circle cx="54" cy="261" r="3" fill="white" fill-opacity="0.6"/>
<circle cx="20" cy="296" r="3" fill="white" fill-opacity="0.6"/>
<circle cx="53" cy="387" r="3" fill="white" fill-opacity="0.6"/>
<circle cx="69" cy="426" r="3" fill="white" fill-opacity="0.6"/>
<circle cx="109" cy="393" r="3" fill="white" fill-opacity="0.6"/>
<circle cx="90" cy="348" r="3" fill="white" fill-opacity="0.6"/>
<circle cx="173" cy="437" r="3" fill="white" fill-opacity="0.6"/>
<circle cx="196" cy="419" r="3" fill="white" fill-opacity="0.6"/>
<circle cx="202" cy="377" r="3" fill="white" fill-opacity="0.6"/>
<circle cx="353" cy="317" r="3" fill="white" fill-opacity="0.6"/>
<circle cx="290" cy="210" r="3" fill="white" fill-opacity="0.6"/>
<circle cx="273" cy="146" r="3" fill="white" fill-opacity="0.6"/>
<circle cx="202" cy="140" r="3" fill="white" fill-opacity="0.6"/>
<circle cx="124" cy="261" r="3" fill="white" fill-opacity="0.6"/>
<circle cx="235" cy="271" r="3" fill="white" fill-opacity="0.6"/>
<circle cx="355" cy="271" r="3" fill="white" fill-opacity="0.6"/>
<circle cx="329" cy="381" r="3" fill="white" fill-opacity="0.6"/>
<circle cx="200" cy="574" r="3" fill="white" fill-opacity="0.6"/>
<circle cx="301" cy="569" r="3" fill="white" fill-opacity="0.6"/>
<circle cx="135" cy="536" r="3" fill="white" fill-opacity="0.6"/>
<circle cx="361" cy="531" r="3" fill="white" fill-opacity="0.6"/>
</svg>
