<svg width="404" height="596" viewBox="0 0 404 596" fill="none" xmlns="http://www.w3.org/2000/svg">
<g opacity="0.5">
<circle cx="89" cy="128" r="5" fill="white" fill-opacity="0.3"/>
<circle cx="132" cy="96" r="5" fill="white" fill-opacity="0.3"/>
<circle cx="116" cy="54" r="5" fill="white" fill-opacity="0.3"/>
<circle cx="45" cy="49" r="5" fill="white" fill-opacity="0.3"/>
<circle cx="71" cy="204" r="5" fill="white" fill-opacity="0.3"/>
<circle cx="154" cy="204" r="5" fill="white" fill-opacity="0.3"/>
<circle cx="221" cy="191" r="5" fill="white" fill-opacity="0.3"/>
<circle cx="321" cy="159" r="5" fill="white" fill-opacity="0.3"/>
<circle cx="397" cy="215" r="5" fill="white" fill-opacity="0.3"/>
<circle cx="314" cy="300" r="5" fill="white" fill-opacity="0.3"/>
<circle cx="365" cy="368" r="5" fill="white" fill-opacity="0.3"/>
<circle cx="164" cy="303" r="5" fill="white" fill-opacity="0.3"/>
<circle cx="105" cy="303" r="5" fill="white" fill-opacity="0.3"/>
<circle cx="42" cy="340" r="5" fill="white" fill-opacity="0.3"/>
<circle cx="126" cy="382" r="5" fill="white" fill-opacity="0.3"/>
<circle cx="167" cy="363" r="5" fill="white" fill-opacity="0.3"/>
<circle cx="192" cy="360" r="3" fill="white" fill-opacity="0.3"/>
<circle cx="143" cy="506" r="3" fill="white" fill-opacity="0.3"/>
<circle cx="219" cy="530" r="3" fill="white" fill-opacity="0.3"/>
<circle cx="195" cy="286" r="3" fill="white" fill-opacity="0.3"/>
<circle cx="124" cy="244" r="3" fill="white" fill-opacity="0.3"/>
<circle cx="81" cy="259" r="3" fill="white" fill-opacity="0.3"/>
<circle cx="71" cy="173" r="3" fill="white" fill-opacity="0.3"/>
<circle cx="60" cy="101" r="3" fill="white" fill-opacity="0.3"/>
<circle cx="108" cy="14" r="3" fill="white" fill-opacity="0.3"/>
<circle cx="216" cy="67" r="3" fill="white" fill-opacity="0.3"/>
<circle cx="217" cy="86" r="3" fill="white" fill-opacity="0.3"/>
<circle cx="278" cy="112" r="3" fill="white" fill-opacity="0.3"/>
<circle cx="284" cy="84" r="3" fill="white" fill-opacity="0.3"/>
<circle cx="285" cy="30" r="3" fill="white" fill-opacity="0.3"/>
<circle cx="186" cy="44" r="3" fill="white" fill-opacity="0.3"/>
<circle cx="317" cy="17" r="3" fill="white" fill-opacity="0.3"/>
<circle cx="328" cy="47" r="3" fill="white" fill-opacity="0.3"/>
<circle cx="395" cy="3" r="3" fill="white" fill-opacity="0.3"/>
<circle cx="346" cy="57" r="3" fill="white" fill-opacity="0.3"/>
<circle cx="345" cy="141" r="3" fill="white" fill-opacity="0.3"/>
<circle cx="347" cy="119" r="3" fill="white" fill-opacity="0.3"/>
<circle cx="401" cy="104" r="3" fill="white" fill-opacity="0.3"/>
<circle cx="358" cy="181" r="3" fill="white" fill-opacity="0.3"/>
<circle cx="370" cy="212" r="3" fill="white" fill-opacity="0.3"/>
<circle cx="392" cy="256" r="3" fill="white" fill-opacity="0.3"/>
<circle cx="372" cy="282" r="3" fill="white" fill-opacity="0.3"/>
<circle cx="395" cy="349" r="3" fill="white" fill-opacity="0.3"/>
<circle cx="389" cy="167" r="3" fill="white" fill-opacity="0.3"/>
<circle cx="367" cy="244" r="3" fill="white" fill-opacity="0.3"/>
<circle cx="340" cy="247" r="3" fill="white" fill-opacity="0.3"/>
<circle cx="221" cy="407" r="5" fill="white" fill-opacity="0.3"/>
<circle cx="279" cy="389" r="5" fill="white" fill-opacity="0.3"/>
<circle cx="313" cy="357" r="5" fill="white" fill-opacity="0.3"/>
<circle cx="281" cy="440" r="5" fill="white" fill-opacity="0.3"/>
<circle cx="350" cy="432" r="5" fill="white" fill-opacity="0.3"/>
<circle cx="352" cy="493" r="5" fill="white" fill-opacity="0.3"/>
<circle cx="248" cy="471" r="5" fill="white" fill-opacity="0.3"/>
<circle cx="198" cy="496" r="5" fill="white" fill-opacity="0.3"/>
<circle cx="227" cy="561" r="5" fill="white" fill-opacity="0.3"/>
<circle cx="273" cy="591" r="5" fill="white" fill-opacity="0.3"/>
<circle cx="146" cy="591" r="5" fill="white" fill-opacity="0.3"/>
<circle cx="127" cy="440" r="5" fill="white" fill-opacity="0.3"/>
<circle cx="52" cy="473" r="5" fill="white" fill-opacity="0.3"/>
<circle cx="78" cy="552" r="5" fill="white" fill-opacity="0.3"/>
<circle cx="5" cy="340" r="5" fill="white" fill-opacity="0.3"/>
<circle cx="10" cy="270" r="5" fill="white" fill-opacity="0.3"/>
<circle cx="5" cy="181" r="5" fill="white" fill-opacity="0.3"/>
<circle cx="173" cy="138" r="5" fill="white" fill-opacity="0.3"/>
<circle cx="177" cy="106" r="5" fill="white" fill-opacity="0.3"/>
<circle cx="214" cy="249" r="5" fill="white" fill-opacity="0.3"/>
<circle cx="273" cy="291" r="5" fill="white" fill-opacity="0.3"/>
</g>
</svg>
